<?xml version="1.0" standalone="no"?>
<!DOCTYPE svg PUBLIC "-//W3C//DTD SVG 20010904//EN"
 "http://www.w3.org/TR/2001/REC-SVG-20010904/DTD/svg10.dtd">
<svg version="1.0" xmlns="http://www.w3.org/2000/svg"
 width="500.000000pt" height="500.000000pt" viewBox="0 0 500.000000 500.000000"
 preserveAspectRatio="xMidYMid meet">
<metadata>
Created by potrace 1.11, written by Peter Selinger 2001-2013
</metadata>
<g transform="translate(0.000000,500.000000) scale(0.100000,-0.100000)"
fill="#000000" stroke="none">
<path d="M2343 4836 c-53 -67 -106 -173 -127 -251 -23 -85 -31 -253 -17 -360
7 -49 30 -172 52 -272 45 -209 50 -292 19 -323 -27 -27 -34 -26 -63 18 -44 67
-152 185 -219 238 -120 98 -240 148 -337 142 l-51 -3 46 -65 c110 -157 195
-339 235 -506 17 -67 23 -120 23 -214 0 -131 -13 -202 -55 -300 l-21 -49 -91
93 c-153 153 -359 271 -498 283 -98 9 -99 2 -16 -80 118 -116 188 -277 218
-505 11 -83 9 -436 -3 -447 -3 -3 -55 28 -117 69 -210 141 -370 177 -474 108
l-28 -19 89 -56 c228 -145 291 -292 247 -577 -44 -282 -47 -330 -36 -477 18
-228 54 -368 142 -548 76 -155 229 -342 354 -433 l30 -21 -107 -1 -108 0 0
-85 0 -85 1065 0 1065 0 0 85 0 85 -122 0 -123 0 97 54 c335 185 584 480 688
816 74 239 81 515 19 780 -19 83 -75 212 -93 214 -4 1 -16 -21 -27 -48 -20
-53 -58 -100 -100 -121 -52 -28 -52 6 2 218 56 220 68 308 58 411 -16 154 -94
316 -197 407 -80 70 -78 70 -74 -34 6 -131 -17 -253 -65 -346 -37 -73 -104
-143 -120 -127 -5 4 -11 141 -14 304 -6 236 -11 321 -28 416 -51 288 -166 507
-324 620 -63 45 -161 96 -184 96 -7 0 2 -30 23 -75 65 -141 96 -251 101 -360
2 -55 0 -125 -5 -155 -8 -51 -9 -53 -16 -25 -55 221 -179 451 -360 668 -75 89
-128 193 -180 351 -37 112 -100 388 -112 489 -4 31 -10 57 -13 57 -3 0 -25
-24 -48 -54z m558 -2742 c26 -111 19 -410 -15 -678 -8 -69 -9 -96 -1 -96 48 0
207 155 325 318 41 56 78 102 82 102 13 0 9 -122 -6 -202 -28 -148 -88 -291
-153 -368 -21 -26 -22 -30 -7 -30 41 0 166 73 229 133 l66 63 -7 -40 c-9 -55
-60 -198 -96 -271 -119 -239 -322 -437 -575 -564 -114 -57 -308 -123 -363
-123 -135 0 -369 162 -489 341 -97 143 -142 287 -142 456 -1 115 8 167 43 275
28 86 75 190 86 190 4 0 16 -35 26 -77 58 -249 158 -458 269 -560 70 -65 149
-98 132 -55 -3 9 -17 62 -30 117 -76 316 -80 593 -9 693 16 23 16 23 48 -55
39 -97 77 -163 124 -215 35 -39 98 -78 125 -78 8 0 21 35 36 103 48 214 157
496 245 636 31 49 42 46 57 -15z"/>
</g>
</svg>
